<?xml version="1.0" standalone="no"?>
<!DOCTYPE svg PUBLIC "-//W3C//DTD SVG 20010904//EN"
 "http://www.w3.org/TR/2001/REC-SVG-20010904/DTD/svg10.dtd">
<svg version="1.0" xmlns="http://www.w3.org/2000/svg"
 width="667.000000pt" height="613.000000pt" viewBox="0 0 667.000000 613.000000"
 preserveAspectRatio="xMidYMid meet">
<metadata>
Created by potrace 1.13, written by Peter Selinger 2001-2015
</metadata>
<g transform="translate(0.000000,613.000000) scale(0.100000,-0.100000)"
fill="#000000" stroke="none">
<path d="M2520 6114 c0 -8 5 -47 11 -86 51 -326 289 -581 617 -659 73 -18 107
-20 217 -16 148 6 216 22 331 77 250 120 420 361 449 638 5 40 3 62 -3 62 -6
0 -13 -26 -17 -57 -30 -266 -184 -493 -415 -612 -133 -69 -204 -86 -370 -86
-171 0 -230 13 -365 79 -241 120 -399 347 -430 619 -4 31 -11 57 -16 57 -5 0
-9 -7 -9 -16z"/>
<path d="M3064 6088 c14 -92 101 -182 199 -209 122 -33 265 30 322 141 20 39
31 110 16 110 -6 0 -11 -10 -11 -23 0 -37 -49 -125 -88 -157 -149 -123 -384
-43 -417 143 -10 53 -29 48 -21 -5z"/>
<path d="M3035 3229 c-609 -70 -1156 -314 -1598 -713 -416 -376 -719 -899
-832 -1436 -44 -209 -48 -258 -52 -667 l-5 -403 -276 -3 c-153 -1 1226 -2
3063 -2 1837 0 3216 1 3063 2 l-276 3 -5 408 c-3 363 -6 420 -26 527 -75 412
-210 754 -424 1070 -463 686 -1193 1119 -2042 1215 -104 11 -487 11 -590 -1z
m730 -38 c501 -82 953 -281 1335 -587 111 -89 329 -307 414 -414 263 -331 451
-731 535 -1135 42 -204 51 -331 51 -697 l0 -348 -975 0 -974 0 -3 1238 c-4
1392 3 1274 -83 1447 -81 165 -196 280 -360 361 -132 65 -224 86 -370 86 -146
0 -239 -21 -370 -86 -203 -101 -348 -274 -417 -496 l-23 -75 -3 -1238 -3
-1237 -975 0 -976 0 5 398 c5 421 9 467 63 709 83 371 269 755 521 1073 145
184 393 411 603 553 344 233 770 396 1180 451 63 9 129 18 145 20 17 2 147 3
290 1 206 -2 287 -7 390 -24z m-225 -92 c242 -62 448 -245 536 -475 25 -65 53
-192 54 -241 l0 -23 -795 0 c-482 0 -795 4 -795 9 0 5 5 44 11 87 55 400 419
692 829 667 47 -3 119 -14 160 -24z m590 -1924 l0 -1165 -795 0 -795 0 0 1165
0 1165 795 0 795 0 0 -1165z"/>
<path d="M3280 617 c-14 -7 -33 -28 -42 -47 -35 -72 15 -150 96 -150 51 0 83
21 103 67 38 92 -64 177 -157 130z m115 -30 c39 -33 39 -91 1 -123 -59 -51
-146 -15 -146 61 0 75 87 112 145 62z"/>
</g>
</svg>
